<svg xmlns="http://www.w3.org/2000/svg" xmlns:xlink="http://www.w3.org/1999/xlink" viewBox="0,0,256,256" width="512px" height="512px" fill-rule="nonzero"><g fill="#ffffff" fill-rule="nonzero" stroke="none" stroke-width="1" stroke-linecap="butt" stroke-linejoin="miter" stroke-miterlimit="10" stroke-dasharray="" stroke-dashoffset="0" font-family="none" font-weight="none" font-size="none" text-anchor="none" style="mix-blend-mode: normal"><g transform="scale(4,4)"><path d="M56,18v-8l-20,-5l-0.005,30.637c-2.337,-2.247 -5.504,-3.637 -8.995,-3.637c-0.211,0 -4,0 -4,0c-7.168,0 -13,5.832 -13,13c0,7.168 5.832,13 13,13h4c7.168,0 13,-5.832 13,-13c0,-0.03 -0.004,-0.059 -0.005,-0.089v-30.912zM27,54c-4.962,0 -9,-4.037 -9,-9c0,-4.963 4.038,-9 9,-9c4.932,0 8.947,3.989 8.995,8.911v0.088h0.005c0,0.001 0,0.001 0,0.001c0,4.963 -4.038,9 -9,9z"></path></g></g></svg>